<?xml version="1.0" encoding="UTF-8"?>
<!DOCTYPE svg PUBLIC "-//W3C//DTD SVG 1.1//EN" "http://www.w3.org/Graphics/SVG/1.1/DTD/svg11.dtd">
<svg xmlns="http://www.w3.org/2000/svg" version="1.1" width="450px" height="112px" style="shape-rendering:geometricPrecision; text-rendering:geometricPrecision; image-rendering:optimizeQuality; fill-rule:evenodd; clip-rule:evenodd" xmlns:xlink="http://www.w3.org/1999/xlink">
<g><path style="opacity:1" fill="#fbb04c" d="M 50.5,19.5 C 54.437,27.0406 58.1037,34.7072 61.5,42.5C 58.0777,47.7693 54.411,52.936 50.5,58C 50.7284,58.3988 51.0618,58.5654 51.5,58.5C 51.5,58.8333 51.5,59.1667 51.5,59.5C 50.1667,59.5 48.8333,59.5 47.5,59.5C 47.5,59.1667 47.5,58.8333 47.5,58.5C 47.8333,58.5 48.1667,58.5 48.5,58.5C 49.1667,45.5 49.8333,32.5 50.5,19.5 Z"/></g>
<g><path style="opacity:1" fill="#e39e45" d="M 399.5,19.5 C 399.667,32.5043 399.5,45.5043 399,58.5C 398.617,57.944 398.117,57.6107 397.5,57.5C 394.167,52.5 390.833,47.5 387.5,42.5C 390.959,33.8914 394.959,26.2248 399.5,19.5 Z"/></g>
<g><path style="opacity:1" fill="#e29e47" d="M 225.5,19.5 C 224.833,32.5 224.167,45.5 223.5,58.5C 219.833,53.1667 216.167,47.8333 212.5,42.5C 215.883,34.7336 219.549,27.0669 223.5,19.5C 224.257,18.2267 224.923,18.2267 225.5,19.5 Z"/></g>
<g><path style="opacity:1" fill="#fbb04e" d="M 225.5,19.5 C 229.437,27.0406 233.104,34.7072 236.5,42.5C 233.053,47.7874 229.386,52.9541 225.5,58C 226.094,58.4643 226.761,58.631 227.5,58.5C 227.5,59.1667 227.167,59.5 226.5,59.5C 225.167,59.5 223.833,59.5 222.5,59.5C 222.5,59.1667 222.5,58.8333 222.5,58.5C 222.833,58.5 223.167,58.5 223.5,58.5C 224.167,45.5 224.833,32.5 225.5,19.5 Z"/></g>
<g><path style="opacity:1" fill="#e29d45" d="M 50.5,19.5 C 49.8333,32.5 49.1667,45.5 48.5,58.5C 44.8333,53.1667 41.1667,47.8333 37.5,42.5C 41.4912,34.5177 45.4912,26.5177 49.5,18.5C 50.1067,18.6236 50.44,18.9569 50.5,19.5 Z"/></g>
<g><path style="opacity:1" fill="#e39e46" d="M 137.5,19.5 C 137.667,32.5043 137.5,45.5043 137,58.5C 136.617,57.944 136.117,57.6107 135.5,57.5C 131.908,52.6434 128.575,47.6434 125.5,42.5C 128.689,34.8004 132.189,27.1337 136,19.5C 136.69,18.2617 137.19,18.2617 137.5,19.5 Z"/></g>
<g><path style="opacity:1" fill="#fbb14e" d="M 137.5,19.5 C 141.739,26.9747 145.739,34.6414 149.5,42.5C 146.252,47.3158 142.752,51.9825 139,56.5C 138.308,57.4368 138.475,58.1034 139.5,58.5C 139.5,58.8333 139.5,59.1667 139.5,59.5C 138.833,59.5 138.167,59.5 137.5,59.5C 137.167,59.5 136.833,59.5 136.5,59.5C 135.833,59.5 135.167,59.5 134.5,59.5C 134.5,59.1667 134.5,58.8333 134.5,58.5C 135.167,58.5 135.5,58.1667 135.5,57.5C 136.117,57.6107 136.617,57.944 137,58.5C 137.5,45.5043 137.667,32.5043 137.5,19.5 Z"/></g>
<g><path style="opacity:1" fill="#e29e46" d="M 311.5,19.5 C 311.829,32.3443 311.495,45.011 310.5,57.5C 306.589,52.6776 302.922,47.6776 299.5,42.5C 303.261,34.6414 307.261,26.9747 311.5,19.5 Z"/></g>
<g><path style="opacity:1" fill="#fbb04c" d="M 399.5,19.5 C 403.739,26.9747 407.739,34.6414 411.5,42.5C 407.966,47.7253 404.299,52.892 400.5,58C 400.728,58.3988 401.062,58.5654 401.5,58.5C 400.791,59.404 399.791,59.7373 398.5,59.5C 398.167,59.5 397.833,59.5 397.5,59.5C 397.5,59.1667 397.5,58.8333 397.5,58.5C 397.5,58.1667 397.5,57.8333 397.5,57.5C 398.117,57.6107 398.617,57.944 399,58.5C 399.5,45.5043 399.667,32.5043 399.5,19.5 Z"/></g>
<g><path style="opacity:1" fill="#fac04e" d="M 37.5,42.5 C 41.1667,47.8333 44.8333,53.1667 48.5,58.5C 48.1667,58.5 47.8333,58.5 47.5,58.5C 35.5,54.8333 23.5,51.1667 11.5,47.5C 12.9916,46.3004 15.325,45.4671 18.5,45C 24.8496,44.2119 31.1829,43.3785 37.5,42.5 Z"/></g>
<g><path style="opacity:1" fill="#fac04c" d="M 149.5,42.5 C 158.89,44.0458 167.557,45.7124 175.5,47.5C 163.429,50.7444 151.429,54.411 139.5,58.5C 138.475,58.1034 138.308,57.4368 139,56.5C 142.752,51.9825 146.252,47.3158 149.5,42.5 Z"/></g>
<g><path style="opacity:1" fill="#fac04d" d="M 299.5,42.5 C 302.922,47.6776 306.589,52.6776 310.5,57.5C 310.5,58.1667 310.167,58.5 309.5,58.5C 297.512,54.8375 285.512,51.1709 273.5,47.5C 281.372,45.302 290.039,43.6353 299.5,42.5 Z"/></g>
<g><path style="opacity:1" fill="#fac04c" d="M 323.5,42.5 C 333.241,43.9439 342.241,45.6105 350.5,47.5C 338.501,51.1662 326.501,54.8329 314.5,58.5C 313.475,58.1034 313.308,57.4368 314,56.5C 317.434,51.9489 320.601,47.2822 323.5,42.5 Z"/></g>
<g><path style="opacity:1" fill="#fac04c" d="M 411.5,42.5 C 420.969,43.6155 429.635,45.2821 437.5,47.5C 425.501,51.1664 413.501,54.8331 401.5,58.5C 401.062,58.5654 400.728,58.3988 400.5,58C 404.299,52.892 407.966,47.7253 411.5,42.5 Z"/></g>
<g><path style="opacity:1" fill="#fac04c" d="M 61.5,42.5 C 70.6582,43.8991 79.6582,45.5658 88.5,47.5C 76.2439,51.3625 63.9106,55.0292 51.5,58.5C 51.0618,58.5654 50.7284,58.3988 50.5,58C 54.411,52.936 58.0777,47.7693 61.5,42.5 Z"/></g>
<g><path style="opacity:1" fill="#fabf4c" d="M 125.5,42.5 C 128.575,47.6434 131.908,52.6434 135.5,57.5C 135.5,58.1667 135.167,58.5 134.5,58.5C 122.511,54.8356 110.511,51.1689 98.5,47.5C 106.728,45.4382 115.728,43.7715 125.5,42.5 Z"/></g>
<g><path style="opacity:1" fill="#fac04d" d="M 212.5,42.5 C 216.167,47.8333 219.833,53.1667 223.5,58.5C 223.167,58.5 222.833,58.5 222.5,58.5C 210.38,55.2379 198.38,51.5712 186.5,47.5C 186.062,47.5654 185.728,47.3988 185.5,47C 194.421,45.0927 203.421,43.5927 212.5,42.5 Z"/></g>
<g><path style="opacity:1" fill="#fac04b" d="M 236.5,42.5 C 245.891,43.857 254.558,45.5236 262.5,47.5C 250.875,51.3225 239.209,54.9891 227.5,58.5C 226.761,58.631 226.094,58.4643 225.5,58C 229.386,52.9541 233.053,47.7874 236.5,42.5 Z"/></g>
<g><path style="opacity:1" fill="#fac04f" d="M 387.5,42.5 C 390.833,47.5 394.167,52.5 397.5,57.5C 397.5,57.8333 397.5,58.1667 397.5,58.5C 385.079,55.4709 373.079,51.4709 361.5,46.5C 370.027,44.5389 378.694,43.2055 387.5,42.5 Z"/></g>
<g><path style="opacity:1" fill="#e29e48" d="M 98.5,47.5 C 110.511,51.1689 122.511,54.8356 134.5,58.5C 134.5,58.8333 134.5,59.1667 134.5,59.5C 129.714,61.5989 124.714,63.4322 119.5,65C 118.186,65.985 117.186,67.1516 116.5,68.5C 116.657,67.1266 116.49,65.7932 116,64.5C 109.663,59.3293 103.83,53.6626 98.5,47.5 Z"/></g>
<g><path style="opacity:1" fill="#e29e48" d="M 175.5,47.5 C 170.188,53.479 164.521,59.1457 158.5,64.5C 157.614,65.325 157.281,66.325 157.5,67.5C 151.744,64.289 145.744,61.6223 139.5,59.5C 139.5,59.1667 139.5,58.8333 139.5,58.5C 151.429,54.411 163.429,50.7444 175.5,47.5 Z"/></g>
<g><path style="opacity:1" fill="#e29e48" d="M 273.5,47.5 C 285.512,51.1709 297.512,54.8375 309.5,58.5C 309.5,58.8333 309.5,59.1667 309.5,59.5C 304.441,61.7987 299.107,63.632 293.5,65C 292.934,65.9947 292.267,66.828 291.5,67.5C 285.892,60.5549 279.892,53.8882 273.5,47.5 Z"/></g>
<g><path style="opacity:1" fill="#e29e47" d="M 350.5,47.5 C 345.17,53.6626 339.337,59.3293 333,64.5C 332.506,66.1341 332.34,67.8008 332.5,69.5C 331.566,68.4324 331.232,67.099 331.5,65.5C 326.052,64.2399 320.719,62.5733 315.5,60.5C 314.584,60.5427 313.917,60.8761 313.5,61.5C 312.957,61.44 312.624,61.1067 312.5,60.5C 313.243,59.8182 313.909,59.1515 314.5,58.5C 326.501,54.8329 338.501,51.1662 350.5,47.5 Z"/></g>
<g><path style="opacity:1" fill="#e29d46" d="M 361.5,46.5 C 373.079,51.4709 385.079,55.4709 397.5,58.5C 397.5,58.8333 397.5,59.1667 397.5,59.5C 391.579,61.696 385.579,63.696 379.5,65.5C 373.004,59.1713 366.337,53.0047 359.5,47C 360.094,46.5357 360.761,46.369 361.5,46.5 Z"/></g>
<g><path style="opacity:1" fill="#e29d46" d="M 11.5,47.5 C 23.5,51.1667 35.5,54.8333 47.5,58.5C 47.5,58.8333 47.5,59.1667 47.5,59.5C 41.9018,62.407 35.9018,64.407 29.5,65.5C 23.1667,59.8333 17.1667,53.8333 11.5,47.5 Z"/></g>
<g><path style="opacity:1" fill="#e29d45" d="M 88.5,47.5 C 82.193,53.4722 75.8597,59.4722 69.5,65.5C 63.1488,64.494 57.1488,62.494 51.5,59.5C 51.5,59.1667 51.5,58.8333 51.5,58.5C 63.9106,55.0292 76.2439,51.3625 88.5,47.5 Z"/></g>
<g><path style="opacity:1" fill="#e29d45" d="M 186.5,47.5 C 198.38,51.5712 210.38,55.2379 222.5,58.5C 222.5,58.8333 222.5,59.1667 222.5,59.5C 216.638,61.6761 210.638,63.6761 204.5,65.5C 198.167,59.8333 192.167,53.8333 186.5,47.5 Z"/></g>
<g><path style="opacity:1" fill="#e29d45" d="M 262.5,47.5 C 256.833,53.8333 250.833,59.8333 244.5,65.5C 238.035,64.4562 232.035,62.4562 226.5,59.5C 227.167,59.5 227.5,59.1667 227.5,58.5C 239.209,54.9891 250.875,51.3225 262.5,47.5 Z"/></g>
<g><path style="opacity:1" fill="#faaf4d" d="M 49.5,60.5 C 57.7092,69.8952 65.2092,79.8952 72,90.5C 72.69,91.7383 73.19,91.7383 73.5,90.5C 74.5735,91.2506 74.7401,92.2506 74,93.5C 66.0172,88.7594 57.8505,84.426 49.5,80.5C 49.5,73.8333 49.5,67.1667 49.5,60.5 Z"/></g>
<g><path style="opacity:1" fill="#ce8639" d="M 134.5,59.5 C 135.167,59.5 135.833,59.5 136.5,59.5C 129.167,70.1667 121.833,80.8333 114.5,91.5C 113.698,92.8847 113.031,92.718 112.5,91C 113.881,83.4935 115.215,75.9935 116.5,68.5C 117.186,67.1516 118.186,65.985 119.5,65C 124.714,63.4322 129.714,61.5989 134.5,59.5 Z"/></g>
<g><path style="opacity:1" fill="#cd8639" d="M 137.5,59.5 C 138.167,59.5 138.833,59.5 139.5,59.5C 145.744,61.6223 151.744,64.289 157.5,67.5C 158.832,75.4917 160.165,83.4917 161.5,91.5C 153.349,81.8603 145.682,71.8603 138.5,61.5C 138.167,60.8333 137.833,60.1667 137.5,59.5 Z"/></g>
<g><path style="opacity:1" fill="#e29d45" d="M 224.5,60.5 C 224.5,67.1667 224.5,73.8333 224.5,80.5C 216.676,84.245 209.009,88.245 201.5,92.5C 208.189,81.1191 215.855,70.4524 224.5,60.5 Z"/></g>
<g><path style="opacity:1" fill="#faaf4d" d="M 224.5,60.5 C 232.5,70.8333 240.5,81.1667 248.5,91.5C 248.44,92.0431 248.107,92.3764 247.5,92.5C 239.964,88.2321 232.297,84.2321 224.5,80.5C 224.5,73.8333 224.5,67.1667 224.5,60.5 Z"/></g>
<g><path style="opacity:1" fill="#cd8538" d="M 309.5,59.5 C 310.833,59.5 311.5,60.1667 311.5,61.5C 303.536,70.7361 296.036,80.4028 289,90.5C 288.536,89.9056 288.369,89.2389 288.5,88.5C 289.112,81.4404 290.112,74.4404 291.5,67.5C 292.267,66.828 292.934,65.9947 293.5,65C 299.107,63.632 304.441,61.7987 309.5,59.5 Z"/></g>
<g><path style="opacity:1" fill="#cd8639" d="M 332.5,69.5 C 333.927,76.8204 335.26,84.1538 336.5,91.5C 328.36,81.8989 320.693,71.8989 313.5,61.5C 313.917,60.8761 314.584,60.5427 315.5,60.5C 320.719,62.5733 326.052,64.2399 331.5,65.5C 331.232,67.099 331.566,68.4324 332.5,69.5 Z"/></g>
<g><path style="opacity:1" fill="#e29d46" d="M 437.5,47.5 C 431.833,53.8333 425.833,59.8333 419.5,65.5C 413.11,64.0366 406.777,62.3699 400.5,60.5C 399.509,66.979 399.176,73.6457 399.5,80.5C 391.703,84.2321 384.036,88.2321 376.5,92.5C 383.585,81.328 390.919,70.328 398.5,59.5C 399.791,59.7373 400.791,59.404 401.5,58.5C 413.501,54.8331 425.501,51.1664 437.5,47.5 Z"/></g>
<g><path style="opacity:1" fill="#faaf4d" d="M 400.5,60.5 C 407.813,71.1389 415.479,81.4723 423.5,91.5C 423.44,92.0431 423.107,92.3764 422.5,92.5C 414.649,88.7422 406.982,84.7422 399.5,80.5C 399.176,73.6457 399.509,66.979 400.5,60.5 Z"/></g>
<g><path style="opacity:1" fill="#cd8639" d="M 400.5,60.5 C 406.777,62.3699 413.11,64.0366 419.5,65.5C 420.834,74.168 422.167,82.8347 423.5,91.5C 415.479,81.4723 407.813,71.1389 400.5,60.5 Z"/></g>
<g><path style="opacity:1" fill="#e19d46" d="M 49.5,60.5 C 49.5,67.1667 49.5,73.8333 49.5,80.5C 41.6759,84.245 34.0092,88.245 26.5,92.5C 33.3986,81.2701 41.0653,70.6034 49.5,60.5 Z"/></g>
<g><path style="opacity:1" fill="#cd8538" d="M 47.5,59.5 C 48.8333,59.5 50.1667,59.5 51.5,59.5C 57.1488,62.494 63.1488,64.494 69.5,65.5C 71.1563,73.7713 72.4896,82.1047 73.5,90.5C 73.19,91.7383 72.69,91.7383 72,90.5C 65.2092,79.8952 57.7092,69.8952 49.5,60.5C 41.0653,70.6034 33.3986,81.2701 26.5,92.5C 25.8614,91.9032 25.528,91.0698 25.5,90C 26.8813,81.8294 28.2146,73.6628 29.5,65.5C 35.9018,64.407 41.9018,62.407 47.5,59.5 Z"/></g>
<g><path style="opacity:1" fill="#e29d45" d="M 136.5,59.5 C 136.833,59.5 137.167,59.5 137.5,59.5C 137.833,60.1667 138.167,60.8333 138.5,61.5C 137.51,67.6446 137.177,73.9779 137.5,80.5C 129.986,84.4233 122.319,88.0899 114.5,91.5C 121.833,80.8333 129.167,70.1667 136.5,59.5 Z"/></g>
<g><path style="opacity:1" fill="#faaf4c" d="M 138.5,61.5 C 145.682,71.8603 153.349,81.8603 161.5,91.5C 161.44,92.0431 161.107,92.3764 160.5,92.5C 152.649,88.7422 144.982,84.7422 137.5,80.5C 137.177,73.9779 137.51,67.6446 138.5,61.5 Z"/></g>
<g><path style="opacity:1" fill="#cd8538" d="M 222.5,59.5 C 223.833,59.5 225.167,59.5 226.5,59.5C 232.035,62.4562 238.035,64.4562 244.5,65.5C 245.962,74.1437 247.295,82.8104 248.5,91.5C 240.5,81.1667 232.5,70.8333 224.5,60.5C 215.855,70.4524 208.189,81.1191 201.5,92.5C 200.844,91.3784 200.511,90.0451 200.5,88.5C 201.943,80.8441 203.276,73.1774 204.5,65.5C 210.638,63.6761 216.638,61.6761 222.5,59.5 Z"/></g>
<g><path style="opacity:1" fill="#e19d45" d="M 311.5,61.5 C 311.5,67.8333 311.5,74.1667 311.5,80.5C 304.018,84.7422 296.351,88.7422 288.5,92.5C 287.218,91.0416 287.218,89.7082 288.5,88.5C 288.369,89.2389 288.536,89.9056 289,90.5C 296.036,80.4028 303.536,70.7361 311.5,61.5 Z"/></g>
<g><path style="opacity:1" fill="#faaf4c" d="M 323.5,42.5 C 320.601,47.2822 317.434,51.9489 314,56.5C 313.308,57.4368 313.475,58.1034 314.5,58.5C 313.909,59.1515 313.243,59.8182 312.5,60.5C 312.624,61.1067 312.957,61.44 313.5,61.5C 320.693,71.8989 328.36,81.8989 336.5,91.5C 336.44,92.0431 336.107,92.3764 335.5,92.5C 327.447,88.4734 319.447,84.4734 311.5,80.5C 311.5,74.1667 311.5,67.8333 311.5,61.5C 311.5,60.1667 310.833,59.5 309.5,59.5C 309.5,59.1667 309.5,58.8333 309.5,58.5C 310.167,58.5 310.5,58.1667 310.5,57.5C 311.495,45.011 311.829,32.3443 311.5,19.5C 311.81,18.2617 312.31,18.2617 313,19.5C 316.788,27.0301 320.288,34.6968 323.5,42.5 Z"/></g>
<g><path style="opacity:1" fill="#ce873a" d="M 397.5,59.5 C 397.833,59.5 398.167,59.5 398.5,59.5C 390.919,70.328 383.585,81.328 376.5,92.5C 375.35,93.8502 374.683,93.6836 374.5,92C 375.9,83.1006 377.566,74.2673 379.5,65.5C 385.579,63.696 391.579,61.696 397.5,59.5 Z"/></g>
</svg>
