<?xml version="1.0" standalone="no"?>
<!DOCTYPE svg PUBLIC "-//W3C//DTD SVG 20010904//EN"
 "http://www.w3.org/TR/2001/REC-SVG-20010904/DTD/svg10.dtd">
<svg version="1.0" xmlns="http://www.w3.org/2000/svg"
 width="512.000000pt" height="512.000000pt" viewBox="0 0 512.000000 512.000000"
 preserveAspectRatio="xMidYMid meet">

<g transform="translate(0.000000,512.000000) scale(0.100000,-0.100000)"
fill="#fff" stroke="none">
<path d="M803 5096 l-28 -24 -3 -254 c-5 -394 -13 -378 190 -378 l138 0 0
-142 c1 -173 4 -180 88 -188 l57 -5 6 -185 c4 -110 13 -215 23 -258 98 -444
408 -804 828 -962 59 -22 111 -40 117 -40 15 0 41 -41 41 -65 0 -37 -23 -54
-120 -89 -356 -125 -644 -394 -789 -735 -49 -115 -36 -171 39 -173 41 -1 62
21 95 102 126 306 397 562 700 660 39 13 86 31 105 40 136 69 161 249 50 357
-22 22 -60 41 -114 59 -405 134 -686 429 -792 833 -21 80 -27 127 -31 279 l-6
182 1163 0 1163 0 -6 -182 c-4 -152 -10 -199 -31 -279 -106 -403 -396 -707
-792 -830 -33 -10 -79 -32 -101 -48 -99 -72 -112 -233 -25 -324 33 -35 76 -58
167 -86 103 -33 253 -115 345 -188 202 -162 340 -376 407 -632 22 -84 26 -123
30 -313 l5 -218 -227 0 -228 0 -51 43 c-97 83 -239 159 -376 202 -69 22 -114
48 -162 94 l-38 35 0 713 0 712 29 34 c38 42 108 81 217 117 289 98 523 324
630 608 39 106 64 221 64 301 0 52 -3 62 -26 80 -25 20 -40 21 -216 21 -187 0
-189 0 -213 -25 -30 -30 -32 -64 -4 -99 20 -26 21 -26 160 -26 161 0 151 10
119 -116 -69 -275 -290 -509 -565 -600 -107 -36 -187 -77 -236 -121 l-40 -36
-32 30 c-52 50 -111 81 -226 122 -131 46 -213 91 -302 164 -79 66 -180 196
-225 292 -32 67 -74 207 -74 247 0 17 23 18 571 18 383 0 577 3 590 11 48 25
44 105 -7 128 -18 8 -205 11 -643 11 -610 0 -619 0 -645 -21 -23 -18 -26 -28
-26 -80 0 -133 61 -328 146 -470 89 -149 258 -306 409 -381 28 -14 97 -42 155
-63 109 -39 143 -58 198 -109 l32 -30 0 -716 0 -716 -37 -35 c-53 -50 -82 -66
-186 -104 -162 -59 -254 -109 -353 -192 l-51 -43 -227 0 -226 0 0 179 c0 156
-2 182 -17 200 -26 31 -73 37 -103 13 -25 -20 -25 -24 -30 -204 l-5 -183 -57
-5 c-84 -8 -87 -15 -88 -187 l0 -143 -138 0 c-203 0 -195 16 -190 -378 l3
-254 28 -24 28 -24 1729 0 1729 0 28 24 28 24 3 254 c5 394 13 378 -190 378
l-138 0 0 143 c-1 172 -4 179 -88 187 l-57 5 -6 220 c-6 236 -16 297 -70 459
-82 245 -273 498 -491 647 -98 67 -260 147 -351 173 -65 19 -97 45 -97 79 0
42 27 64 112 92 188 60 361 168 514 320 183 183 304 402 360 657 10 43 19 148
23 258 l6 185 57 5 c84 8 87 15 88 188 l0 142 138 0 c203 0 195 -16 190 378
l-3 254 -28 24 -28 24 -1729 0 -1729 0 -28 -24z m3387 -316 l0 -190 -1630 0
-1630 0 0 190 0 190 1630 0 1630 0 0 -190z m-320 -430 l0 -90 -1310 0 -1310 0
0 90 0 90 1310 0 1310 0 0 -90z m-1265 -3140 c64 -50 95 -67 210 -108 61 -22
130 -51 155 -66 l45 -26 -447 0 c-247 0 -448 2 -448 5 0 9 105 58 198 91 114
42 124 47 186 95 27 22 52 39 56 39 4 0 24 -14 45 -30z m1265 -440 l0 -90
-1310 0 -1310 0 0 90 0 90 1310 0 1310 0 0 -90z m320 -430 l0 -190 -1630 0
-1630 0 0 190 0 190 1630 0 1630 0 0 -190z"/>
</g>
</svg>
