<?xml version="1.0" standalone="no"?>
<!DOCTYPE svg PUBLIC "-//W3C//DTD SVG 20010904//EN"
 "http://www.w3.org/TR/2001/REC-SVG-20010904/DTD/svg10.dtd">
<svg version="1.0" xmlns="http://www.w3.org/2000/svg"
 width="512.000000pt" height="512.000000pt" viewBox="0 0 512.000000 512.000000"
 preserveAspectRatio="xMidYMid meet">

<g transform="translate(0.000000,512.000000) scale(0.100000,-0.100000)"
fill="#fff" stroke="none">
<path d="M1027 5106 c-80 -29 -134 -83 -163 -163 -10 -30 -13 -165 -14 -664
l0 -626 -62 -17 c-117 -33 -215 -92 -313 -191 -74 -73 -99 -106 -133 -175 -61
-125 -77 -193 -77 -335 0 -97 5 -134 24 -195 35 -113 86 -203 165 -288 90 -96
194 -163 308 -199 l88 -28 0 -127 0 -128 -222 0 c-195 0 -228 -3 -263 -19 -46
-21 -79 -54 -94 -94 -7 -19 -11 -209 -11 -564 0 -524 0 -538 21 -580 14 -29
35 -52 63 -68 42 -25 46 -25 274 -25 l231 0 3 -218 c3 -199 5 -220 24 -257 28
-51 68 -91 119 -119 l40 -21 1185 -3 c652 -1 1195 0 1207 3 13 3 30 19 39 36
13 26 13 36 3 60 -6 17 -20 34 -30 39 -11 6 -460 10 -1194 10 l-1177 0 -34 34
-34 34 0 201 0 201 942 0 941 0 43 25 c28 16 49 39 63 68 21 42 21 56 21 580
0 355 -4 545 -11 564 -15 40 -48 73 -94 94 -38 18 -87 19 -972 19 l-933 0 0
124 0 123 68 5 c156 12 321 97 444 227 82 87 134 175 170 291 19 63 23 95 22
205 -1 149 -21 229 -89 352 -56 101 -188 228 -292 281 -90 46 -211 82 -280 82
l-43 0 0 205 0 205 1560 0 1560 0 0 -230 0 -230 -952 -2 -953 -3 -34 -24 c-18
-13 -42 -42 -52 -65 -17 -38 -19 -76 -19 -576 l0 -536 23 -44 c26 -52 59 -78
113 -90 22 -6 442 -10 957 -10 l917 0 0 -119 0 -119 -80 -11 c-416 -61 -694
-446 -616 -853 59 -309 322 -552 630 -584 l66 -7 0 -174 0 -175 -34 -34 -34
-34 -159 0 c-154 0 -160 -1 -181 -23 -30 -31 -29 -77 2 -106 23 -22 29 -23
198 -19 189 3 218 11 282 74 65 65 71 90 74 305 l3 197 84 27 c425 138 626
617 425 1015 -90 178 -278 331 -455 371 l-55 12 0 129 0 128 208 0 c114 0 225
5 246 10 54 12 87 38 113 90 l23 44 0 536 c0 500 -2 538 -19 576 -10 23 -34
52 -52 65 -33 24 -39 24 -276 27 l-242 3 -3 662 c-3 656 -3 662 -24 702 -28
51 -68 91 -119 119 l-40 21 -1233 3 -1233 2 -24 -24 c-32 -32 -32 -70 0 -101
l24 -25 1217 0 1216 0 34 -34 34 -34 0 -341 0 -341 -1560 0 -1560 0 0 341 0
341 34 34 34 34 130 0 c116 0 132 2 156 21 19 15 26 30 26 54 0 24 -7 39 -26
54 -24 19 -40 21 -158 21 -83 -1 -145 -6 -169 -14z m103 -1611 c159 -42 299
-158 370 -306 77 -161 78 -331 3 -491 -46 -98 -60 -112 -82 -78 -30 47 -116
132 -158 157 -24 14 -43 27 -43 29 0 2 13 24 29 49 100 158 41 370 -127 451
-78 38 -192 40 -267 4 -174 -85 -236 -294 -134 -455 16 -25 29 -47 29 -49 0
-2 -19 -15 -43 -29 -42 -25 -127 -109 -159 -157 -14 -22 -18 -23 -32 -10 -50
50 -106 222 -106 330 0 251 182 488 426 555 66 18 226 18 294 0z m3580 -554
c0 -464 -2 -520 -16 -525 -20 -8 -2398 -8 -2418 0 -14 5 -16 61 -16 525 l0
519 1225 0 1225 0 0 -519z m-3635 219 c68 -42 93 -136 55 -210 -30 -60 -73
-85 -145 -85 -72 0 -115 25 -145 85 -26 51 -25 96 3 150 43 86 147 113 232 60z
m3 -464 c68 -19 130 -55 175 -105 42 -47 70 -98 64 -115 -7 -19 -117 -74 -183
-91 -76 -21 -222 -21 -298 0 -67 18 -176 72 -183 92 -7 19 40 95 86 136 94 85
217 115 339 83z m3213 -849 c365 -111 528 -523 335 -851 -15 -25 -30 -46 -34
-46 -4 1 -24 26 -45 56 -34 48 -133 134 -169 146 -9 3 -5 17 14 45 107 162 54
372 -116 461 -44 23 -63 27 -141 27 -78 0 -97 -4 -141 -27 -170 -89 -223 -299
-116 -461 19 -28 23 -42 14 -45 -34 -11 -132 -97 -167 -146 -22 -30 -43 -55
-47 -56 -13 0 -67 101 -90 170 -32 92 -32 246 -1 345 62 198 243 358 446 395
65 11 199 5 258 -13z m-1436 -552 l0 -520 -1220 0 -1220 0 -3 510 c-1 281 0
516 3 523 3 10 253 12 1222 10 l1218 -3 0 -520z m1349 231 c81 -34 117 -137
77 -220 -60 -123 -232 -123 -292 0 -67 139 71 280 215 220z m41 -481 c74 -22
149 -79 196 -148 46 -70 48 -66 -53 -118 -177 -90 -402 -75 -575 38 -21 14
-22 16 -7 45 22 42 92 116 135 143 84 54 206 70 304 40z"/>
<path d="M2501 3284 c-27 -35 -26 -57 3 -91 l24 -28 710 0 c684 0 711 1 731
19 27 25 28 79 1 106 -20 20 -33 20 -734 20 l-715 0 -20 -26z"/>
<path d="M2501 2984 c-27 -35 -26 -57 3 -91 l24 -28 924 -3 c507 -1 938 0 956
3 66 12 94 81 49 123 l-23 22 -956 0 -957 0 -20 -26z"/>
<path d="M2501 2684 c-27 -35 -26 -57 3 -91 l24 -28 204 -3 c111 -2 218 -1
236 3 67 12 94 81 49 123 -23 21 -31 22 -259 22 l-237 0 -20 -26z"/>
<path d="M673 1658 c-48 -23 -51 -103 -4 -127 13 -8 247 -11 725 -11 693 0
706 0 726 20 30 30 27 83 -6 109 -26 21 -33 21 -723 20 -466 0 -703 -4 -718
-11z"/>
<path d="M673 1358 c-48 -23 -51 -103 -4 -127 13 -8 319 -11 970 -11 l950 0
20 26 c28 35 26 69 -4 99 l-24 25 -943 -1 c-639 0 -950 -4 -965 -11z"/>
<path d="M673 1058 c-48 -23 -51 -103 -4 -127 12 -7 107 -11 250 -11 l230 0
20 26 c28 35 26 69 -4 99 l-24 25 -223 -1 c-134 0 -232 -5 -245 -11z"/>
<path d="M2296 4805 c-21 -7 -54 -28 -73 -47 -99 -93 -97 -238 5 -330 143
-129 366 -27 366 167 0 158 -150 263 -298 210z m129 -160 c14 -13 25 -36 25
-50 0 -33 -42 -75 -75 -75 -33 0 -75 42 -75 75 0 33 42 75 75 75 14 0 37 -11
50 -25z"/>
<path d="M2899 4793 c-166 -85 -166 -311 0 -395 73 -37 131 -37 202 0 160 83
160 311 0 394 -71 37 -129 37 -202 1z m145 -144 c68 -53 -7 -160 -83 -119 -10
5 -24 22 -30 39 -10 24 -10 34 3 59 24 47 66 55 110 21z"/>
<path d="M3546 4805 c-21 -7 -54 -28 -73 -47 -99 -93 -97 -238 5 -330 143
-129 366 -27 366 167 0 158 -150 263 -298 210z m129 -160 c14 -13 25 -36 25
-50 0 -14 -11 -37 -25 -50 -13 -14 -36 -25 -50 -25 -14 0 -37 11 -50 25 -14
13 -25 36 -25 50 0 14 11 37 25 50 13 14 36 25 50 25 14 0 37 -11 50 -25z"/>
</g>
</svg>
