<?xml version="1.0" standalone="no"?>
<!DOCTYPE svg PUBLIC "-//W3C//DTD SVG 20010904//EN"
 "http://www.w3.org/TR/2001/REC-SVG-20010904/DTD/svg10.dtd">
<svg version="1.0" xmlns="http://www.w3.org/2000/svg"
 width="328.000000pt" height="75.000000pt" viewBox="0 0 328.000000 75.000000"
 preserveAspectRatio="xMidYMid meet">

<g transform="translate(0.000000,75.000000) scale(0.100000,-0.100000)"
fill="#fff" stroke="none">
<path d="M2435 713 c35 -81 66 -187 77 -257 15 -106 -3 -221 -54 -350 l-35
-86 58 0 58 0 36 73 c85 173 86 400 3 567 l-33 65 -59 3 c-53 3 -58 1 -51 -15z"/>
<path d="M2715 713 c35 -81 66 -187 77 -257 15 -106 -3 -221 -54 -350 l-35
-86 58 0 58 0 36 73 c85 173 86 400 3 567 l-33 65 -59 3 c-53 3 -58 1 -51 -15z"/>
<path d="M2985 713 c35 -81 66 -187 77 -257 15 -106 -3 -221 -54 -350 l-35
-86 58 0 58 0 36 73 c85 173 86 400 3 567 l-33 65 -59 3 c-53 3 -58 1 -51 -15z"/>
<path d="M752 691 c-177 -61 -269 -265 -194 -434 85 -191 345 -259 490 -127
l32 30 -36 50 -36 50 -31 -24 c-105 -78 -236 -47 -293 69 -32 66 -29 112 10
179 35 61 116 101 181 92 42 -5 76 -19 117 -49 19 -12 24 -8 71 64 l18 27 -45
32 c-91 62 -184 76 -284 41z"/>
<path d="M1945 697 c-94 -32 -168 -96 -207 -182 -34 -75 -33 -201 4 -270 35
-68 92 -122 158 -154 70 -33 179 -36 255 -7 66 26 147 103 176 169 33 73 33
191 1 263 -29 64 -102 136 -167 165 -61 27 -164 34 -220 16z m195 -151 c58
-38 85 -90 85 -161 0 -101 -67 -177 -167 -191 -182 -25 -289 195 -158 326 22
22 54 44 72 49 50 16 126 5 168 -23z"/>
<path d="M80 385 l0 -315 190 0 190 0 0 65 0 65 -125 0 -125 0 0 65 0 65 110
0 110 0 0 65 0 65 -110 0 -110 0 0 55 0 55 125 0 125 0 0 65 0 65 -190 0 -190
0 0 -315z"/>
<path d="M1140 385 l0 -315 65 0 65 0 0 125 0 125 115 0 115 0 0 -125 0 -125
65 0 65 0 0 315 0 315 -65 0 -65 0 0 -125 0 -125 -115 0 -115 0 0 125 0 125
-65 0 -65 0 0 -315z"/>
</g>
</svg>
