<?xml version="1.0" standalone="no"?>
<!DOCTYPE svg PUBLIC "-//W3C//DTD SVG 20010904//EN"
 "http://www.w3.org/TR/2001/REC-SVG-20010904/DTD/svg10.dtd">
<svg version="1.0" xmlns="http://www.w3.org/2000/svg"
 width="512.000000pt" height="512.000000pt" viewBox="0 0 512.000000 512.000000"
 preserveAspectRatio="xMidYMid meet">

<g transform="translate(0.000000,512.000000) scale(0.100000,-0.100000)"
fill="#fff" stroke="none">
<path d="M297 5099 c-109 -26 -209 -109 -260 -217 l-32 -67 -3 -1135 c-2
-1110 -2 -1136 18 -1200 34 -113 124 -208 235 -249 48 -18 78 -21 220 -21
l164 0 20 26 c24 30 26 43 10 77 -18 39 -50 47 -198 47 -128 0 -141 2 -190 26
-64 32 -106 86 -121 157 -8 37 -10 369 -8 1147 3 1046 4 1097 22 1130 26 49
64 88 111 113 l40 22 1696 0 1696 0 48 -30 c27 -17 63 -50 80 -74 l30 -43 3
-754 c2 -746 2 -754 -17 -754 -20 0 -20 9 -23 668 -3 661 -3 667 -25 714 -47
103 -122 165 -229 193 -54 14 -235 15 -1595 13 l-1534 -3 -67 -33 c-73 -36
-124 -87 -160 -161 l-23 -46 -3 -837 c-2 -835 -2 -836 19 -895 30 -79 112
-162 192 -192 56 -20 71 -21 582 -21 l525 0 0 -170 0 -169 -326 -3 -326 -3
-19 -24 c-25 -30 -24 -62 2 -95 l20 -26 265 0 c145 0 264 -2 264 -4 0 -2 -30
-61 -66 -130 l-66 -126 -41 0 c-94 0 -165 -41 -198 -115 -35 -75 -14 -164 50
-218 47 -40 90 -47 274 -47 l167 0 0 -330 0 -330 -67 0 c-115 0 -173 -54 -173
-162 0 -116 66 -225 171 -283 l54 -30 835 -5 835 -5 5 -130 c4 -115 8 -135 30
-175 14 -24 45 -58 68 -75 l44 -30 407 0 407 0 42 28 c23 15 54 46 69 69 26
39 28 50 33 177 l5 136 300 5 c288 5 302 6 347 28 101 50 173 154 185 266 4
43 1 63 -16 99 -30 62 -61 80 -151 87 l-75 5 -5 1040 -5 1040 -32 66 c-58 118
-165 201 -291 228 -30 6 -151 11 -277 11 l-225 0 0 718 c0 778 -2 806 -55 896
-30 51 -107 126 -156 151 -88 46 -39 45 -1814 44 -936 -1 -1697 -5 -1718 -10z
m3292 -384 c39 -20 78 -69 91 -113 6 -24 10 -265 10 -669 l0 -633 -889 0
c-558 0 -908 -4 -942 -10 -122 -23 -239 -111 -292 -220 -16 -32 -32 -90 -39
-138 l-12 -82 -508 0 c-435 0 -514 2 -545 15 -50 21 -72 42 -94 90 -18 38 -19
85 -19 837 0 541 3 806 11 825 13 34 44 70 84 94 29 18 85 19 1573 19 1335 0
1547 -2 1571 -15z m973 -1587 c53 -25 106 -74 131 -122 l22 -41 3 -1028 2
-1027 -217 2 -218 3 -3 38 -3 37 82 0 c45 0 100 6 123 12 54 16 128 90 144
144 9 31 12 203 12 667 0 344 -3 633 -6 642 -10 24 -60 46 -89 39 -57 -14 -55
5 -55 -666 0 -431 -3 -624 -11 -641 -16 -35 -49 -47 -129 -47 l-68 0 -4 114
c-3 109 -5 117 -33 158 -73 103 -109 110 -547 106 -336 -3 -344 -3 -391 -26
-55 -28 -100 -78 -116 -131 -6 -21 -11 -79 -11 -130 l0 -91 -610 0 -611 0 -24
25 -25 24 0 816 c0 802 0 815 20 835 20 20 33 20 1269 20 l1250 0 20 -26 c16
-20 21 -41 21 -82 0 -43 5 -61 22 -79 29 -31 72 -30 103 2 22 21 25 33 25 93
0 126 -69 218 -183 242 -37 8 -407 10 -1292 8 l-1240 -3 -40 -22 c-22 -11 -52
-34 -67 -50 -60 -63 -58 -24 -58 -943 0 -832 0 -841 21 -882 26 -50 62 -85
114 -109 37 -17 79 -19 663 -19 l623 0 -3 -37 -3 -38 -747 -3 -748 -2 0 1020
c0 1134 -5 1058 68 1133 45 47 81 67 141 77 25 4 629 7 1341 6 1210 -1 1297
-2 1332 -18z m-3042 -1108 l0 -70 -41 0 -40 0 37 70 c20 39 38 70 40 70 2 0 4
-31 4 -70z m0 -265 l0 -35 -152 0 c-84 0 -163 3 -175 6 -24 7 -35 27 -27 49 5
13 35 15 180 15 l174 0 0 -35z m2590 -417 c13 -14 20 -35 20 -62 l0 -41 -400
0 -400 0 0 36 c0 22 8 47 21 63 l20 26 359 0 c357 0 359 0 380 -22z m14 -274
c3 -9 6 -147 6 -308 0 -214 -3 -295 -12 -304 -17 -17 -759 -17 -776 0 -17 17
-17 599 0 616 9 9 110 12 394 12 339 0 383 -2 388 -16z m-944 -394 l0 -90
-804 0 c-544 0 -814 3 -833 11 -57 21 -113 95 -113 149 0 20 2 20 875 20 l875
0 0 -90z m1790 73 c-1 -36 -39 -101 -76 -129 l-37 -29 -289 -3 -288 -3 0 91 0
90 345 0 c322 0 345 -1 345 -17z m-840 -497 c0 -27 -7 -47 -22 -63 l-21 -23
-358 0 -358 0 -20 26 c-13 16 -21 41 -21 63 l0 36 400 0 400 0 0 -39z"/>
</g>
</svg>
