<?xml version="1.0" standalone="no"?>
<!DOCTYPE svg PUBLIC "-//W3C//DTD SVG 20010904//EN"
 "http://www.w3.org/TR/2001/REC-SVG-20010904/DTD/svg10.dtd">
<svg version="1.0" xmlns="http://www.w3.org/2000/svg"
 width="512.000000pt" height="512.000000pt" viewBox="0 0 512.000000 512.000000"
 preserveAspectRatio="xMidYMid meet">

<g transform="translate(0.000000,512.000000) scale(0.100000,-0.100000)"
fill="#fff" stroke="none">
<path d="M2485 5111 c-65 -17 -108 -43 -163 -95 -88 -84 -140 -100 -223 -70
-24 8 -76 16 -116 16 -160 1 -283 -103 -323 -271 -18 -76 -66 -127 -139 -147
-137 -37 -209 -93 -257 -197 -31 -69 -36 -175 -10 -246 30 -83 14 -135 -69
-222 -77 -81 -98 -133 -98 -239 0 -106 21 -158 98 -239 83 -87 99 -139 69
-222 -26 -71 -21 -177 10 -246 48 -104 121 -160 256 -197 35 -10 66 -26 84
-45 l28 -29 -181 -350 c-121 -235 -181 -361 -181 -382 0 -46 25 -85 66 -105
38 -18 38 -18 238 29 111 25 206 46 212 46 6 0 45 -82 85 -183 83 -207 111
-247 174 -247 73 0 85 15 226 290 73 140 150 289 172 330 l39 75 79 0 79 0
166 -322 c179 -350 196 -373 266 -373 66 0 93 37 178 248 40 100 78 182 84
182 6 0 101 -21 212 -46 200 -47 200 -47 238 -29 42 20 66 59 66 105 0 22 -59
146 -181 382 l-181 350 28 29 c18 19 49 36 84 45 127 35 202 88 246 176 46 90
49 163 13 290 -19 68 -2 115 73 195 83 89 103 136 103 243 0 107 -20 154 -103
243 -75 80 -92 127 -73 195 36 127 33 200 -13 290 -45 88 -119 141 -247 176
-73 21 -121 71 -139 147 -40 168 -163 272 -323 271 -40 0 -92 -8 -116 -16 -83
-30 -135 -14 -223 70 -31 30 -79 64 -105 76 -52 23 -158 33 -208 19z m143
-156 c20 -9 62 -40 92 -70 98 -96 198 -122 336 -87 141 37 225 -7 254 -130 37
-155 123 -241 278 -278 123 -29 167 -113 130 -254 -35 -136 -6 -249 87 -336
112 -106 112 -214 0 -320 -93 -87 -122 -200 -87 -336 37 -141 -6 -224 -133
-255 -153 -37 -238 -123 -275 -277 -29 -123 -113 -167 -254 -130 -138 35 -238
9 -336 -87 -114 -112 -207 -113 -315 -3 -94 97 -204 125 -341 90 -147 -38
-223 5 -259 148 -33 132 -123 222 -255 255 -143 36 -184 109 -148 258 34 141
6 248 -90 342 -79 77 -99 145 -66 223 8 20 38 59 66 87 96 94 124 201 90 342
-36 149 5 222 148 258 132 33 222 123 255 255 36 143 112 186 259 148 137 -35
247 -7 341 90 78 79 144 99 223 67z m-777 -2610 c72 -32 176 -37 248 -11 24 9
54 16 68 16 40 0 96 -29 140 -72 l42 -41 -131 -256 c-73 -141 -139 -268 -148
-284 l-17 -27 -58 142 c-78 193 -90 215 -125 233 -41 21 -58 20 -245 -25 -92
-23 -169 -39 -171 -38 -1 2 54 112 123 246 l125 242 43 -48 c29 -32 65 -58
106 -77z m1698 -127 c68 -131 120 -238 118 -238 -3 0 -80 18 -172 40 -186 45
-204 46 -245 25 -35 -18 -40 -27 -120 -223 l-63 -153 -21 38 c-12 21 -79 149
-148 284 l-127 246 42 41 c44 43 100 72 140 72 14 0 44 -7 68 -16 24 -9 76
-16 116 -16 92 0 179 37 238 104 22 24 43 42 46 39 4 -3 61 -113 128 -243z"/>
<path d="M2375 4646 c-393 -76 -708 -370 -806 -753 -16 -63 -17 -83 -8 -106
33 -80 127 -54 148 41 84 394 442 682 846 682 391 0 717 -240 841 -620 26 -79
28 -97 28 -250 0 -153 -2 -171 -28 -250 -124 -378 -450 -620 -836 -620 -409 0
-766 286 -851 682 -20 93 -107 120 -145 46 -14 -27 -13 -36 6 -110 104 -401
434 -699 841 -759 112 -16 302 -6 403 21 367 98 637 370 738 741 19 72 23 109
23 249 0 140 -4 177 -23 249 -101 371 -370 642 -738 741 -101 28 -334 36 -439
16z"/>
<path d="M2515 4304 c-16 -8 -34 -19 -38 -23 -5 -5 -37 -84 -72 -177 l-63
-169 -184 -11 c-100 -5 -191 -14 -200 -18 -28 -13 -51 -57 -51 -98 0 -48 15
-65 177 -194 l122 -96 -48 -176 c-53 -194 -53 -221 -1 -262 51 -40 86 -29 251
80 l152 99 152 -99 c167 -109 200 -120 251 -80 52 41 52 70 2 252 -25 91 -45
171 -45 179 1 8 61 61 135 119 167 131 188 169 138 246 -23 35 -58 43 -241 51
l-174 8 -62 165 c-34 91 -66 171 -70 179 -9 14 -67 41 -88 41 -7 0 -26 -7 -43
-16z m94 -344 c63 -173 73 -180 257 -180 56 0 105 -4 108 -9 4 -5 -34 -41 -84
-81 -149 -118 -148 -118 -96 -302 19 -65 32 -118 30 -118 -1 0 -55 34 -120 75
-73 47 -128 75 -145 75 -17 0 -67 -26 -135 -71 -59 -39 -113 -73 -120 -76 -7
-2 1 40 22 114 18 65 34 132 34 150 0 41 -29 75 -136 158 -46 37 -82 71 -79
76 4 5 53 9 109 9 184 0 194 7 257 180 24 66 46 120 49 120 3 0 25 -54 49
-120z"/>
<path d="M434 1980 c-53 -12 -103 -49 -132 -98 l-27 -47 -3 -740 c-2 -510 0
-756 8 -791 13 -62 59 -120 114 -145 34 -16 67 -19 200 -19 143 0 164 2 204
21 50 25 99 85 108 135 3 19 8 34 9 34 2 0 178 -65 393 -145 214 -79 415 -152
448 -162 53 -15 126 -18 673 -21 411 -2 638 1 685 8 161 25 166 28 1480 771
81 46 160 95 174 109 72 71 98 224 55 321 -67 150 -225 216 -384 160 -30 -10
-310 -132 -623 -270 -313 -138 -572 -251 -576 -251 -4 0 -11 20 -14 45 -17
114 -122 252 -233 309 -74 37 -100 41 -538 91 -220 26 -420 51 -445 57 -61 15
-165 63 -290 135 -235 135 -444 199 -687 210 l-123 6 0 61 c-1 108 -61 191
-156 215 -48 12 -271 13 -320 1z m304 -156 c22 -15 22 -19 22 -229 0 -227 5
-255 47 -274 34 -16 47 -14 77 10 25 20 26 24 26 120 l0 99 73 0 c149 0 365
-47 503 -110 37 -16 122 -62 190 -100 139 -80 217 -114 307 -135 34 -7 242
-34 462 -60 220 -25 421 -52 446 -61 97 -31 176 -129 186 -230 l6 -57 -374 6
c-261 4 -407 10 -484 21 -208 30 -208 30 -235 8 -18 -14 -24 -29 -24 -57 0
-56 23 -69 163 -89 195 -27 355 -35 705 -36 l328 0 182 79 c99 43 397 174 661
291 525 233 556 243 622 201 64 -40 86 -123 51 -190 -22 -43 -39 -53 -668
-408 -355 -201 -681 -382 -725 -403 -142 -68 -163 -70 -809 -70 -454 0 -590 3
-648 14 -40 8 -263 85 -495 172 l-423 157 0 286 c0 279 0 285 -22 308 -26 28
-67 30 -99 4 l-24 -19 -5 -381 c-4 -325 -7 -383 -20 -391 -8 -5 -77 -10 -152
-10 -130 0 -138 1 -152 22 -14 20 -16 108 -16 751 l0 728 25 24 c23 24 30 25
147 25 96 0 129 -4 146 -16z"/>
</g>
</svg>
