<?xml version="1.0" standalone="no"?>
<!DOCTYPE svg PUBLIC "-//W3C//DTD SVG 20010904//EN"
 "http://www.w3.org/TR/2001/REC-SVG-20010904/DTD/svg10.dtd">
<svg version="1.0" xmlns="http://www.w3.org/2000/svg"
 width="512.000000pt" height="512.000000pt" viewBox="0 0 512.000000 512.000000"
 preserveAspectRatio="xMidYMid meet">

<g transform="translate(0.000000,512.000000) scale(0.100000,-0.100000)"
fill="#000" stroke="none">
<path d="M2459 4886 c-308 -323 -497 -762 -529 -1226 -9 -132 -2 -328 16 -436
l6 -42 -187 -223 c-112 -134 -198 -246 -213 -279 -25 -51 -27 -67 -30 -216 -4
-158 -4 -161 20 -189 17 -20 34 -28 54 -27 19 0 129 57 297 151 147 83 270
151 274 151 5 0 21 -24 37 -54 l29 -54 -36 -143 c-30 -121 -34 -148 -24 -169
23 -48 39 -50 387 -50 348 0 364 2 387 50 10 21 6 48 -24 169 l-36 143 29 54
c16 30 33 54 37 54 5 0 128 -68 275 -151 159 -89 278 -151 295 -151 17 -1 37
8 50 21 21 20 22 30 22 189 0 160 -1 169 -26 222 -16 32 -103 147 -214 279
l-187 223 6 42 c18 108 25 304 16 436 -32 464 -221 903 -529 1226 -95 99 -107
99 -202 0z m166 -183 c67 -81 146 -199 204 -305 l42 -78 -311 0 -312 0 43 78
c78 143 244 372 269 372 5 0 34 -30 65 -67z m333 -613 c124 -393 112 -856 -32
-1230 -37 -94 -108 -240 -138 -282 l-19 -28 -208 0 c-185 0 -210 2 -223 18
-21 23 -101 184 -138 277 -143 361 -164 801 -55 1187 14 47 29 98 35 112 l10
26 372 -2 372 -3 24 -75z m-944 -1164 c10 -35 33 -101 52 -147 18 -46 30 -87
25 -92 -8 -8 -411 -237 -417 -237 -9 0 -1 128 9 157 11 29 294 382 307 383 3
0 13 -29 24 -64z m1260 -105 c76 -90 144 -178 153 -195 9 -17 18 -64 21 -104
l5 -74 -39 20 c-60 31 -378 212 -386 220 -4 4 8 45 26 91 19 46 42 112 52 147
11 35 22 63 25 62 4 -2 68 -77 143 -167z m-512 -496 c9 -38 18 -76 18 -82 0
-10 -51 -13 -220 -13 -154 0 -220 3 -220 11 0 11 27 121 35 147 4 10 46 12
187 10 l182 -3 18 -70z"/>
<path d="M2480 3907 c-63 -18 -112 -50 -159 -103 -100 -114 -97 -297 7 -415
78 -89 226 -124 343 -80 205 77 269 338 123 500 -80 89 -207 128 -314 98z
m150 -159 c24 -13 52 -35 63 -49 57 -79 29 -202 -57 -243 -111 -53 -238 23
-238 142 0 76 32 126 102 156 49 21 79 20 130 -6z"/>
<path d="M647 3669 c-92 -22 -167 -82 -215 -172 l-27 -52 -3 -1407 -2 -1408
-176 0 c-174 0 -175 0 -200 -26 -26 -25 -26 -27 -22 -153 3 -122 4 -130 33
-177 19 -30 49 -60 79 -79 l49 -30 2361 -3 c1299 -2 2380 0 2402 3 58 8 129
58 162 114 25 42 27 56 30 173 4 125 4 127 -22 152 -25 26 -26 26 -200 26
l-176 0 -2 1403 -3 1402 -26 56 c-33 71 -87 125 -158 158 l-56 26 -526 3
c-522 3 -525 3 -552 -18 -34 -27 -37 -80 -7 -110 19 -19 33 -20 523 -20 298 0
516 -4 537 -10 41 -11 94 -61 109 -103 8 -20 11 -459 11 -1408 l0 -1379 -127
0 -128 0 -1 98 c-1 174 -58 307 -189 437 -136 137 -279 191 -478 182 -102 -4
-108 -4 -119 17 -22 41 -122 137 -172 165 -104 59 -239 77 -353 48 l-51 -14
-6 37 c-17 105 -115 227 -224 278 -50 24 -69 27 -162 27 -93 0 -112 -3 -162
-27 -109 -51 -207 -173 -224 -278 l-6 -37 -51 14 c-114 29 -249 11 -353 -48
-50 -28 -150 -124 -172 -165 -11 -21 -17 -21 -119 -17 -199 9 -342 -45 -478
-182 -131 -130 -188 -263 -189 -437 l-1 -98 -127 0 -128 0 0 1379 c0 949 3
1388 11 1408 15 42 68 92 109 103 21 6 239 10 538 10 489 0 503 1 522 20 30
30 27 83 -6 109 -26 21 -35 21 -533 20 -278 -1 -523 -5 -544 -10z m2018 -1933
c108 -50 152 -144 131 -281 -6 -44 -4 -55 14 -78 29 -37 73 -36 124 3 59 45
126 63 210 58 119 -8 217 -75 270 -187 38 -78 60 -88 147 -66 83 22 212 16
290 -14 121 -46 238 -159 280 -271 27 -70 44 -184 35 -232 l-7 -38 -1372 0
c-1495 0 -1406 3 -1421 -55 -7 -29 15 -79 39 -89 9 -3 815 -6 1791 -6 l1774 0
0 -56 c0 -48 -4 -59 -29 -85 l-29 -29 -2352 0 -2352 0 -29 29 c-25 26 -29 37
-29 85 l0 56 494 0 c484 0 494 0 520 21 33 26 35 73 4 106 -19 21 -30 23 -114
23 l-93 0 -7 38 c-11 59 12 185 47 260 38 79 128 173 205 214 106 57 239 73
356 42 84 -21 106 -10 144 67 53 112 151 179 270 187 84 5 151 -13 210 -58 51
-39 95 -40 124 -3 18 24 20 35 14 73 -11 60 -7 124 10 163 36 87 128 147 226
147 37 0 72 -8 105 -24z"/>
</g>
</svg>
