<?xml version="1.0" standalone="no"?>
<!DOCTYPE svg PUBLIC "-//W3C//DTD SVG 20010904//EN"
 "http://www.w3.org/TR/2001/REC-SVG-20010904/DTD/svg10.dtd">
<svg version="1.0" xmlns="http://www.w3.org/2000/svg"
 width="512.000000pt" height="512.000000pt" viewBox="0 0 512.000000 512.000000"
 preserveAspectRatio="xMidYMid meet">

<g transform="translate(0.000000,512.000000) scale(0.100000,-0.100000)"
fill="#000" stroke="none">
<path d="M2134 5090 c-39 -4 -81 -13 -92 -19 -45 -24 -39 -105 8 -128 18 -8
47 -9 100 -3 41 5 132 9 201 10 250 0 466 -34 704 -111 978 -320 1609 -1279
1515 -2304 -78 -850 -638 -1579 -1442 -1879 -237 -88 -483 -130 -763 -130
-284 0 -525 42 -766 132 -804 302 -1361 1029 -1439 1877 -36 391 37 799 206
1154 30 63 54 127 54 142 0 54 -69 88 -112 55 -42 -31 -165 -319 -217 -505
-67 -239 -86 -384 -86 -651 1 -301 29 -474 122 -754 195 -587 634 -1086 1198
-1362 343 -167 652 -238 1040 -238 227 0 349 14 550 61 253 59 541 184 754
327 62 42 116 76 119 76 3 0 61 -54 127 -120 131 -129 149 -138 199 -99 18 14
26 30 26 52 0 27 -17 49 -117 149 l-116 117 105 103 c57 57 122 123 143 147
l37 44 375 -374 c209 -209 381 -388 389 -406 31 -72 8 -138 -75 -216 -57 -53
-86 -67 -140 -67 -55 0 -108 39 -271 204 -127 129 -149 146 -177 146 -43 0
-73 -30 -73 -72 0 -29 20 -53 173 -205 205 -204 227 -218 357 -218 105 0 145
19 243 113 93 90 122 152 122 257 -1 132 -2 135 -442 576 l-384 386 61 94
c188 290 310 622 362 984 19 135 16 494 -5 635 -106 688 -471 1262 -1049 1646
-267 177 -605 307 -939 359 -119 19 -476 28 -585 15z"/>
<path d="M1128 5070 c-196 -49 -373 -170 -485 -332 -64 -93 -84 -133 -119
-238 -25 -78 -28 -98 -28 -240 -1 -267 26 -329 323 -740 118 -162 226 -322
241 -355 15 -33 40 -114 55 -179 25 -108 32 -124 68 -163 84 -91 210 -91 294
0 36 39 43 55 68 163 35 151 64 213 159 344 55 77 76 113 76 136 0 56 -70 95
-112 62 -32 -25 -162 -215 -199 -291 -22 -46 -49 -127 -64 -193 -22 -94 -32
-118 -51 -131 -22 -14 -26 -14 -48 0 -19 13 -29 37 -51 132 -38 165 -84 247
-304 550 -222 304 -244 339 -278 437 -34 100 -43 263 -19 372 46 204 188 380
381 472 102 48 174 64 295 64 269 0 504 -146 620 -385 50 -103 70 -187 70
-304 0 -155 -36 -267 -131 -407 -30 -44 -58 -88 -62 -98 -20 -51 47 -111 98
-88 57 26 186 247 222 382 14 49 18 102 18 220 -1 149 -2 159 -33 250 -98 283
-323 493 -602 560 -113 26 -293 27 -402 0z"/>
<path d="M1180 4717 c-352 -120 -455 -551 -195 -812 206 -206 543 -188 727 40
120 148 141 354 55 527 -37 76 -133 176 -202 211 -123 62 -266 75 -385 34z
m291 -155 c70 -34 122 -84 160 -154 32 -58 34 -69 34 -153 0 -76 -4 -99 -26
-146 -34 -72 -96 -134 -168 -168 -47 -22 -70 -26 -141 -26 -71 0 -94 4 -140
26 -70 33 -136 99 -168 168 -29 63 -40 166 -23 226 28 104 121 205 220 239 66
23 192 17 252 -12z"/>
<path d="M2314 4648 c-22 -10 -44 -47 -44 -73 0 -8 10 -25 23 -38 20 -23 33
-25 177 -36 256 -18 458 -70 663 -171 122 -59 290 -166 285 -181 -2 -6 -179
-251 -393 -544 l-390 -534 -441 -1 c-416 0 -443 -1 -465 -19 -32 -26 -32 -86
0 -112 22 -18 49 -19 491 -19 258 0 475 3 483 6 8 3 199 257 423 564 225 308
414 560 421 560 6 0 50 -41 97 -91 l86 -92 -23 -31 c-46 -60 -551 -751 -574
-785 -30 -43 -29 -76 2 -106 l24 -25 484 0 484 0 6 -102 c3 -57 3 -115 0 -130
l-5 -27 -305 -3 -305 -3 -19 -24 c-25 -30 -24 -76 1 -101 19 -19 33 -20 320
-20 210 0 300 -3 300 -11 0 -31 -45 -224 -72 -308 -64 -204 -205 -453 -348
-616 l-61 -70 -486 -5 -485 -5 -19 -24 c-25 -30 -24 -72 1 -99 21 -22 22 -22
410 -22 215 0 390 -4 390 -8 0 -16 -217 -152 -320 -201 -126 -60 -279 -112
-415 -141 -144 -31 -440 -39 -599 -16 -189 27 -378 87 -549 172 -82 41 -287
174 -287 186 0 4 189 8 419 8 392 0 420 1 442 18 33 27 30 78 -5 109 l-27 23
-507 0 -507 0 -46 53 -46 53 330 452 331 452 802 0 803 0 20 26 c12 15 21 33
21 40 0 26 -23 62 -47 73 -36 17 -1640 15 -1671 -2 -13 -6 -169 -212 -348
-457 -179 -245 -329 -446 -333 -448 -15 -5 -141 208 -141 237 0 6 93 137 207
292 220 301 229 318 184 362 -21 21 -29 22 -290 25 l-269 3 -5 27 c-3 15 -3
73 0 130 l6 102 152 0 c134 0 156 2 176 19 32 26 32 86 0 112 -20 17 -41 19
-163 19 l-140 0 7 43 c4 23 21 85 37 137 43 138 45 156 17 186 -26 28 -64 31
-96 9 -28 -19 -83 -186 -112 -337 -147 -765 172 -1534 817 -1966 239 -161 510
-265 793 -307 142 -20 408 -20 552 1 792 115 1440 726 1602 1511 197 953 -353
1904 -1280 2212 -224 75 -581 123 -651 89z m1633 -1123 c55 -109 134 -330 148
-412 l7 -43 -381 0 c-210 0 -381 3 -381 6 0 3 109 154 242 336 l241 330 34
-54 c19 -29 60 -102 90 -163z m-2994 -1029 c-18 -32 -248 -345 -254 -346 -13
0 -89 298 -89 351 0 5 79 9 175 9 148 0 175 -2 168 -14z"/>
<path d="M2293 2232 c-271 -97 -282 -480 -18 -589 l45 -18 0 -156 c0 -143 2
-159 21 -183 26 -33 79 -36 109 -6 18 18 20 33 20 184 l0 164 29 7 c71 15 166
110 196 195 20 55 19 154 -1 213 -21 61 -94 141 -158 174 -68 35 -170 41 -243
15z m195 -159 c101 -75 97 -210 -8 -281 -46 -31 -130 -28 -179 8 -37 26 -70
90 -71 135 0 50 40 117 85 143 50 28 131 26 173 -5z"/>
</g>
</svg>
