<?xml version="1.0" standalone="no"?>
<!DOCTYPE svg PUBLIC "-//W3C//DTD SVG 20010904//EN"
 "http://www.w3.org/TR/2001/REC-SVG-20010904/DTD/svg10.dtd">
<svg version="1.0" xmlns="http://www.w3.org/2000/svg"
 width="512.000000pt" height="512.000000pt" viewBox="0 0 512.000000 512.000000"
 preserveAspectRatio="xMidYMid meet">

<g transform="translate(0.000000,512.000000) scale(0.100000,-0.100000)"
fill="#000" stroke="none">
<path d="M474 5110 c-11 -4 -33 -22 -47 -40 l-27 -32 0 -804 0 -804 34 -38 34
-37 316 -3 316 -3 0 -99 0 -100 -442 0 c-422 0 -445 -1 -475 -20 -55 -33 -63
-62 -63 -223 0 -133 2 -147 23 -178 31 -45 60 -59 133 -59 l62 0 4 -67 c3 -45
13 -88 31 -128 l27 -60 -2 -950 -3 -950 -162 -5 -163 -5 -32 -33 -33 -32 -3
-169 c-4 -190 3 -216 61 -251 32 -20 70 -20 2497 -20 2427 0 2465 0 2497 20
58 35 65 61 61 251 l-3 169 -33 32 -32 33 -163 5 -162 5 -5 458 -5 459 -24 19
c-27 22 -40 23 -74 8 -43 -19 -47 -45 -47 -299 l0 -240 -635 0 -635 0 0 565
c0 614 0 610 -55 653 l-28 22 -657 0 -657 0 -28 -22 c-55 -43 -55 -39 -55
-653 l0 -565 -635 0 -635 0 0 694 0 695 68 -6 c87 -7 162 14 226 63 l47 36 32
-25 c76 -57 117 -72 207 -72 95 1 153 22 206 75 l29 28 34 -30 c61 -54 116
-73 211 -73 72 0 92 4 135 27 28 14 61 38 74 52 l24 25 34 -29 c66 -59 110
-75 203 -75 72 0 93 4 141 27 30 15 65 38 78 52 l22 24 27 -25 c15 -14 50 -37
77 -51 43 -23 62 -27 135 -27 94 1 148 20 207 74 l32 29 22 -24 c13 -14 48
-37 78 -52 48 -23 69 -27 141 -27 72 0 92 4 135 27 28 14 61 38 74 52 l24 25
34 -29 c66 -59 110 -75 203 -75 95 0 150 19 211 73 l35 30 24 -25 c39 -41 119
-75 187 -81 76 -6 148 16 215 64 l47 35 46 -36 c63 -48 141 -69 227 -62 l68 6
0 -295 0 -295 25 -24 c30 -31 77 -33 105 -5 19 19 20 33 20 374 l0 354 26 57
c18 38 29 82 32 127 l5 68 61 0 c73 0 103 14 133 59 21 32 23 44 23 181 0 137
-2 149 -23 181 -12 18 -34 39 -47 46 -19 10 -134 13 -467 13 l-443 0 0 100 0
99 316 3 316 3 34 37 34 38 0 805 0 805 -34 38 -34 37 -2079 2 c-1143 1 -2087
-2 -2099 -7z m4096 -875 l0 -735 -1160 0 -1161 0 -24 -25 c-32 -31 -32 -69 0
-100 l24 -25 811 0 810 0 0 -100 0 -100 -1310 0 -1310 0 0 100 0 100 350 0
351 0 24 25 c32 31 32 69 0 100 l-24 25 -701 0 -700 0 0 735 0 735 2010 0
2010 0 0 -735z m280 -1325 l0 -90 -2290 0 -2290 0 0 90 0 90 2290 0 2290 0 0
-90z m-4033 -295 c-11 -107 -82 -172 -180 -162 -86 8 -138 64 -145 157 l-4 60
167 0 168 0 -6 -55z m473 1 c0 -39 -6 -62 -22 -86 -39 -57 -72 -75 -138 -75
-66 0 -99 18 -137 75 -17 24 -23 47 -23 86 l0 54 160 0 160 0 0 -54z m480 8
c0 -93 -61 -163 -149 -172 -96 -9 -167 56 -178 163 l-6 55 167 0 166 0 0 -46z
m477 -9 c-7 -69 -38 -120 -88 -145 -111 -57 -228 13 -237 141 l-4 59 167 0
168 0 -6 -55z m473 1 c0 -39 -6 -62 -22 -86 -39 -57 -72 -75 -138 -75 -66 0
-99 18 -137 75 -17 24 -23 47 -23 86 l0 54 160 0 160 0 0 -54z m478 -5 c-9
-128 -126 -198 -237 -141 -50 25 -81 76 -88 145 l-6 55 168 0 167 0 -4 -59z
m479 4 c-11 -107 -82 -172 -178 -163 -88 9 -149 79 -149 172 l0 46 166 0 167
0 -6 -55z m473 1 c0 -39 -6 -62 -22 -86 -39 -57 -72 -75 -138 -75 -66 0 -99
18 -137 75 -17 24 -23 47 -23 86 l0 54 160 0 160 0 0 -54z m478 -5 c-9 -128
-126 -198 -237 -141 -50 25 -81 76 -88 145 l-6 55 168 0 167 0 -4 -59z m-2148
-1351 l0 -750 -252 2 -253 3 -3 748 -2 747 255 0 255 0 0 -750z m668 3 l-3
-748 -252 -3 -253 -2 0 750 0 750 255 0 255 0 -2 -747z m-1328 -623 l0 -130
-635 0 -635 0 0 130 0 130 635 0 635 0 0 -130z m2750 0 l0 -130 -635 0 -635 0
0 130 0 130 635 0 635 0 0 -130z m400 -385 l0 -105 -2410 0 -2410 0 0 105 0
105 2410 0 2410 0 0 -105z"/>
<path d="M1821 4836 c-90 -32 -151 -122 -151 -222 1 -136 100 -238 235 -239
160 -1 275 148 230 300 -39 135 -183 209 -314 161z m141 -156 c32 -25 41 -66
21 -107 -39 -83 -163 -54 -163 39 0 76 83 115 142 68z"/>
<path d="M1345 4616 c-16 -7 -40 -24 -52 -37 -35 -39 -373 -794 -373 -835 0
-19 7 -48 15 -64 32 -62 13 -60 705 -60 l630 0 36 33 c28 26 37 42 41 77 5 43
0 53 -122 255 -70 116 -139 223 -153 239 -85 91 -258 88 -337 -6 -14 -17 -27
-29 -28 -27 -2 2 -38 83 -82 179 -43 96 -85 185 -92 197 -19 28 -90 63 -129
63 -16 -1 -42 -7 -59 -14z m229 -495 c86 -189 154 -346 153 -348 -2 -2 -148
-2 -324 -1 l-320 3 160 353 c88 194 163 350 168 345 4 -4 77 -163 163 -352z
m376 9 c10 -6 66 -89 124 -185 l105 -175 -140 0 -140 0 -50 106 c-27 59 -52
117 -55 129 -6 24 33 98 64 123 19 15 66 16 92 2z"/>
<path d="M2786 4549 c-33 -26 -36 -79 -6 -109 20 -20 33 -20 688 -20 l669 0
21 23 c31 33 29 80 -4 106 -26 21 -34 21 -684 21 -650 0 -658 0 -684 -21z"/>
<path d="M2782 4030 c-30 -28 -30 -82 0 -110 21 -19 33 -20 364 -20 330 0 342
1 368 21 34 27 36 77 3 107 -23 22 -28 22 -368 22 -334 0 -346 -1 -367 -20z"/>
<path d="M946 2139 c-56 -44 -56 -42 -56 -504 0 -462 1 -471 55 -513 26 -21
37 -22 241 -22 212 0 213 0 242 25 16 13 35 37 41 53 8 20 11 151 9 471 l-3
443 -37 34 -38 34 -214 0 c-201 0 -215 -1 -240 -21z m384 -509 l0 -380 -145 0
-145 0 0 380 0 380 145 0 145 0 0 -380z"/>
<path d="M3682 2126 l-37 -34 -3 -443 c-2 -320 1 -451 9 -471 6 -16 25 -40 41
-53 29 -25 30 -25 242 -25 204 0 215 1 241 22 54 42 55 51 55 513 0 462 0 460
-56 504 -25 20 -39 21 -240 21 l-214 0 -38 -34z m398 -496 l0 -380 -145 0
-145 0 0 380 0 380 145 0 145 0 0 -380z"/>
</g>
</svg>
